<svg width="51" height="62" viewBox="0 0 51 62" fill="none" xmlns="http://www.w3.org/2000/svg">
<mask id="mask0_3_746" style="mask-type:luminance" maskUnits="userSpaceOnUse" x="0" y="0" width="51" height="62">
<path d="M51 0H0V61.9057H51V0Z" fill="white"/>
</mask>
<g mask="url(#mask0_3_746)">
<path d="M20.9826 16.9748C18.6142 16.9834 16.2573 17.3071 13.975 17.9403L14.6029 21.8395C16.4666 21.4412 18.3619 21.2321 20.2686 21.2092C23.543 21.2092 24.171 21.7793 24.171 24.0455V25.094H19.0156C14.861 25.094 13.304 28.0019 13.304 32.1504C13.304 35.6743 14.8954 38.2298 18.6314 38.2298C20.7905 38.2298 22.9036 37.6024 24.7158 36.4249L25.1286 37.9633H29.289V24.352C29.289 19.2381 27.3995 16.9719 20.9797 16.9719M24.171 33.1159C22.9524 33.8751 21.579 34.3507 20.1511 34.5025C17.9375 34.5827 17.9863 32.434 17.9863 31.0101C17.9863 29.4602 18.7146 28.9732 20.3948 28.9732H24.171V33.1159Z" fill="white"/>
<path d="M38.7367 5.80444H36.8271V40.9401L24.5523 53.2078H27.2504L38.7367 41.7308V5.80444Z" fill="white"/>
</g>
</svg>
